<svg version="1.2" xmlns="http://www.w3.org/2000/svg" viewBox="0 0 1920 721" width="1920" height="721"><defs><clipPath clipPathUnits="userSpaceOnUse" id="cp1"><path d="m0 112.92q493.19-112.92 969-112.92 475.81 0 951 112.92v608h-1920z"/></clipPath><clipPath clipPathUnits="userSpaceOnUse" id="cp2"><path d="m0 112.92q493.19-112.92 969-112.92 475.81 0 951 112.92v608h-1920z"/></clipPath><clipPath clipPathUnits="userSpaceOnUse" id="cp3"><path d="m179.73 32.15q-0.92 505.96-107.95 969.57-107.03 463.61-323.95 901.22l-592.42-136.77 431.91-1870.79z"/></clipPath><clipPath clipPathUnits="userSpaceOnUse" id="cp4"><path d="m0 112.92q493.19-112.92 969-112.92 475.81 0 951 112.92v608h-1920z"/></clipPath><clipPath clipPathUnits="userSpaceOnUse" id="cp5"><path d="m0 112.92q493.19-112.92 969-112.92 475.81 0 951 112.92v608h-1920z"/></clipPath></defs><style>.a{fill:#0070e9}.b{opacity:.13;fill:#fff}</style><path class="a" d="m0 112.9q493.2-112.9 969-112.9 475.8 0 951 112.9v608h-1920z"/><g clip-path="url(#cp1)"><path class="b" d="m1565.7 45q132.8 16 354 68v509q-95.1-123-59-209c71.7-170.5-41.7-209.1-105-225-222.9-56-190-142-190-143z"/></g><g clip-path="url(#cp2)"><path fill-rule="evenodd" class="b" d="m1868 660c-11.1 0-20-8.9-20-20 0-11.1 8.9-20 20-20 11.1 0 20 8.9 20 20 0 11.1-8.9 20-20 20z"/></g><g clip-path="url(#cp3)"><path class="b" d="m94.9 141.5c-2.5 10.7 14.2 22.8 28.2 12.7 14-10.2 21.9 10.2 24.4-0.6 2.5-10.7-4.2-21.5-15-24-10.8-2.4-35.2 1.1-37.6 11.9z"/></g><g clip-path="url(#cp4)"><path fill-rule="evenodd" class="b" d="m1899 700c-6.1 0-11-4.9-11-11 0-6.1 4.9-11 11-11 6.1 0 11 4.9 11 11 0 6.1-4.9 11-11 11z"/></g><g clip-path="url(#cp5)"><path class="b" d="m187 127c92 43 138.9-74 138.9-76-221.9 32.5-347.9 66.9-347.9 66 0 17 117-33 209 10z"/></g></svg>